<?xml version="1.0" standalone="no"?><!DOCTYPE svg PUBLIC "-//W3C//DTD SVG 1.1//EN" "http://www.w3.org/Graphics/SVG/1.1/DTD/svg11.dtd"><svg height="1024" node-id="1" sillyvg="true" template-height="1024" template-width="1024" version="1.1" viewBox="0 0 1024 1024" width="1024" xmlns="http://www.w3.org/2000/svg" xmlns:xlink="http://www.w3.org/1999/xlink"><defs node-id="32"><linearGradient gradientUnits="objectBoundingBox" id="master_svg2_26_232" node-id="9" spreadMethod="pad" x1="0.5" x2="0.5" y1="0" y2="1"><stop offset="0" stop-color="#7f7f7f"></stop><stop offset="1" stop-color="#7f7f7f" stop-opacity="0.04"></stop></linearGradient><linearGradient gradientUnits="objectBoundingBox" id="master_svg4_26_633" node-id="18" spreadMethod="pad" x1="0.5" x2="0.5" y1="0" y2="1"><stop offset="0" stop-color="#cecece"></stop><stop offset="1" stop-color="#797b7c"></stop></linearGradient><linearGradient gradientUnits="objectBoundingBox" id="master_svg5_27_0550" node-id="21" spreadMethod="pad" x1="0.5" x2="0.5" y1="0" y2="1"><stop offset="0" stop-color="#f6f8fa"></stop><stop offset="1" stop-color="#7a7c7d" stop-opacity="0"></stop></linearGradient><filter filterUnits="objectBoundingBox" height="512.0001" id="master_svg1_37_0458" node-id="5" width="512.0001" x="375.46677" y="204.80002"><feFlood color-interpolation-filters="sRGB" flood-color="#000000" flood-opacity="0" result="BackgroundImageFix"></feFlood><feBlend color-interpolation-filters="sRGB" in="SourceGraphic" in2="BackgroundImageFix" mode="normal" result="shape"></feBlend><feGaussianBlur color-interpolation-filters="sRGB" in="shape" result="effect1_foregroundBlur" stdDeviation="8.533334 8.533334"></feGaussianBlur></filter><filter filterUnits="objectBoundingBox" height="443.7334" id="master_svg3_37_0459" node-id="12" width="682.66675" x="170.6665" y="341.33325"><feFlood color-interpolation-filters="sRGB" flood-color="#000000" flood-opacity="0" result="BackgroundImageFix"></feFlood><feBlend color-interpolation-filters="sRGB" in="SourceGraphic" in2="BackgroundImageFix" mode="normal" result="shape"></feBlend><feGaussianBlur color-interpolation-filters="sRGB" in="BackgroundImageFix" result="result3" stdDeviation="34.133335 34.133335"></feGaussianBlur><feComposite color-interpolation-filters="sRGB" in="result3" in2="SourceAlpha" operator="in" result="effect1_foregroundBlur"></feComposite><feBlend color-interpolation-filters="sRGB" in="SourceGraphic" in2="effect1_foregroundBlur" mode="normal" result="shape"></feBlend></filter><clipPath id="master_svg0_37_0457" node-id="3"><path d="M 0.00 0.00 L 1024.00 0.00 L 1024.00 1024.00 L 0.00 1024.00 Z" fill="#000000" fill-rule="nonzero" node-id="73" stroke="none" target-height="1024" target-width="1024" target-x="0" target-y="0"></path></clipPath></defs><g clip-path="url(#master_svg0_37_0457)" id="sillyvg_g_0" node-id="77"><path d="M 0.00 0.00 L 1024.00 0.00 L 1024.00 1024.00 L 0.00 1024.00 Z" fill="#000000" fill-rule="nonzero" node-id="79" stroke="none" target-height="1024" target-width="1024" target-x="0" target-y="0"></path><path d="M 853.33 460.80 C 853.33 464.43 853.24 468.06 853.07 471.69 C 852.89 475.31 852.62 478.93 852.27 482.55 C 851.91 486.16 851.46 489.76 850.93 493.35 C 850.40 496.95 849.78 500.52 849.07 504.08 C 848.36 507.65 847.57 511.19 846.68 514.71 C 845.80 518.23 844.83 521.73 843.78 525.20 C 842.73 528.68 841.59 532.13 840.36 535.54 C 839.14 538.96 837.83 542.35 836.44 545.70 C 835.06 549.06 833.58 552.38 832.03 555.66 C 830.48 558.94 828.85 562.18 827.14 565.39 C 825.42 568.59 823.63 571.75 821.77 574.86 C 819.90 577.98 817.96 581.04 815.94 584.06 C 813.92 587.08 811.83 590.05 809.67 592.97 C 807.51 595.88 805.28 598.74 802.97 601.55 C 800.67 604.36 798.30 607.11 795.86 609.80 C 793.42 612.49 790.92 615.12 788.35 617.68 C 785.78 620.25 783.15 622.75 780.46 625.19 C 777.77 627.63 775.02 630.00 772.22 632.31 C 769.41 634.61 766.55 636.84 763.63 639.00 C 760.72 641.17 757.75 643.26 754.73 645.28 C 751.71 647.29 748.64 649.23 745.53 651.10 C 742.41 652.97 739.26 654.76 736.05 656.47 C 732.85 658.18 729.61 659.81 726.33 661.37 C 723.04 662.92 719.73 664.39 716.37 665.78 C 713.02 667.17 709.63 668.47 706.21 669.70 C 702.79 670.92 699.35 672.06 695.87 673.11 C 692.40 674.17 688.90 675.14 685.38 676.02 C 681.85 676.90 678.31 677.70 674.75 678.40 C 671.19 679.11 667.61 679.73 664.02 680.27 C 660.43 680.80 656.83 681.24 653.21 681.60 C 649.60 681.95 645.98 682.22 642.35 682.40 C 638.73 682.58 635.10 682.67 631.47 682.67 C 627.84 682.67 624.21 682.58 620.58 682.40 C 616.95 682.22 613.33 681.95 609.72 681.60 C 606.11 681.24 602.50 680.80 598.91 680.27 C 595.32 679.73 591.74 679.11 588.18 678.40 C 584.62 677.70 581.08 676.90 577.56 676.02 C 574.04 675.14 570.54 674.17 567.06 673.11 C 563.59 672.06 560.14 670.92 556.72 669.70 C 553.30 668.47 549.92 667.17 546.56 665.78 C 543.21 664.39 539.89 662.92 536.61 661.37 C 533.32 659.81 530.08 658.18 526.88 656.47 C 523.68 654.76 520.52 652.97 517.40 651.10 C 514.29 649.23 511.22 647.29 508.20 645.28 C 505.19 643.26 502.22 641.17 499.30 639.00 C 496.38 636.84 493.52 634.61 490.72 632.31 C 487.91 630.00 485.16 627.63 482.47 625.19 C 479.78 622.75 477.15 620.25 474.58 617.68 C 472.02 615.12 469.51 612.49 467.07 609.80 C 464.64 607.11 462.26 604.36 459.96 601.55 C 457.66 598.74 455.42 595.88 453.26 592.97 C 451.10 590.05 449.01 587.08 446.99 584.06 C 444.97 581.04 443.03 577.98 441.17 574.86 C 439.30 571.75 437.51 568.59 435.80 565.39 C 434.09 562.18 432.45 558.94 430.90 555.66 C 429.35 552.38 427.88 549.06 426.49 545.70 C 425.10 542.35 423.79 538.96 422.57 535.54 C 421.35 532.13 420.21 528.68 419.15 525.20 C 418.10 521.73 417.13 518.23 416.25 514.71 C 415.37 511.19 414.57 507.65 413.86 504.08 C 413.15 500.52 412.53 496.95 412.00 493.35 C 411.47 489.76 411.02 486.16 410.67 482.55 C 410.31 478.93 410.05 475.31 409.87 471.69 C 409.69 468.06 409.60 464.43 409.60 460.80 C 409.60 457.17 409.69 453.54 409.87 449.91 C 410.05 446.29 410.31 442.67 410.67 439.05 C 411.02 435.44 411.47 431.84 412.00 428.25 C 412.53 424.65 413.15 421.08 413.86 417.52 C 414.57 413.95 415.37 410.41 416.25 406.89 C 417.13 403.37 418.10 399.87 419.15 396.40 C 420.21 392.92 421.35 389.47 422.57 386.06 C 423.79 382.64 425.10 379.25 426.49 375.90 C 427.88 372.54 429.35 369.22 430.90 365.94 C 432.45 362.66 434.09 359.42 435.80 356.21 C 437.51 353.01 439.30 349.85 441.17 346.74 C 443.03 343.62 444.97 340.56 446.99 337.54 C 449.01 334.52 451.10 331.55 453.26 328.63 C 455.42 325.72 457.66 322.86 459.96 320.05 C 462.26 317.24 464.64 314.49 467.07 311.80 C 469.51 309.11 472.02 306.48 474.58 303.92 C 477.15 301.35 479.78 298.85 482.47 296.41 C 485.16 293.97 487.91 291.60 490.72 289.29 C 493.52 286.99 496.38 284.76 499.30 282.60 C 502.22 280.43 505.19 278.34 508.20 276.32 C 511.22 274.31 514.29 272.37 517.40 270.50 C 520.52 268.63 523.68 266.84 526.88 265.13 C 530.08 263.42 533.32 261.79 536.61 260.23 C 539.89 258.68 543.21 257.21 546.56 255.82 C 549.92 254.43 553.30 253.13 556.72 251.90 C 560.14 250.68 563.59 249.54 567.06 248.49 C 570.54 247.43 574.04 246.46 577.56 245.58 C 581.08 244.70 584.62 243.90 588.18 243.20 C 591.74 242.49 595.32 241.87 598.91 241.33 C 602.50 240.80 606.11 240.36 609.72 240.00 C 613.33 239.65 616.95 239.38 620.58 239.20 C 624.21 239.02 627.84 238.93 631.47 238.93 C 635.10 238.93 638.73 239.02 642.35 239.20 C 645.98 239.38 649.60 239.65 653.21 240.00 C 656.83 240.36 660.43 240.80 664.02 241.33 C 667.61 241.87 671.19 242.49 674.75 243.20 C 678.31 243.90 681.85 244.70 685.38 245.58 C 688.90 246.46 692.40 247.43 695.87 248.49 C 699.35 249.54 702.79 250.68 706.21 251.90 C 709.63 253.13 713.02 254.43 716.37 255.82 C 719.73 257.21 723.04 258.68 726.33 260.23 C 729.61 261.79 732.85 263.42 736.05 265.13 C 739.26 266.84 742.41 268.63 745.53 270.50 C 748.64 272.37 751.71 274.31 754.73 276.32 C 757.75 278.34 760.72 280.43 763.63 282.60 C 766.55 284.76 769.41 286.99 772.22 289.29 C 775.02 291.60 777.77 293.97 780.46 296.41 C 783.15 298.85 785.78 301.35 788.35 303.92 C 790.92 306.48 793.42 309.11 795.86 311.80 C 798.30 314.49 800.67 317.24 802.97 320.05 C 805.28 322.86 807.51 325.72 809.67 328.63 C 811.83 331.55 813.92 334.52 815.94 337.54 C 817.96 340.56 819.90 343.62 821.77 346.74 C 823.63 349.85 825.42 353.01 827.14 356.21 C 828.85 359.42 830.48 362.66 832.03 365.94 C 833.58 369.22 835.06 372.54 836.44 375.90 C 837.83 379.25 839.14 382.64 840.36 386.06 C 841.59 389.47 842.73 392.92 843.78 396.40 C 844.83 399.87 845.80 403.37 846.68 406.89 C 847.57 410.41 848.36 413.95 849.07 417.52 C 849.78 421.08 850.40 424.65 850.93 428.25 C 851.46 431.84 851.91 435.44 852.27 439.05 C 852.62 442.67 852.89 446.29 853.07 449.91 C 853.24 453.54 853.33 457.17 853.33 460.80 Z" fill="url(#master_svg2_26_232)" fill-rule="nonzero" filter="url(#master_svg1_37_0458)" group-id="1" node-id="83" stroke="none" target-height="443.7334" target-width="443.73343" target-x="409.60007" target-y="238.93333"></path><path d="M 605.37 500.50 C 577.98 407.26 492.01 341.33 392.53 341.33 C 270.00 341.33 170.67 440.67 170.67 563.20 C 170.67 685.73 270.00 785.07 392.53 785.07 L 725.33 785.07 C 796.03 785.07 853.33 727.76 853.33 657.07 C 853.33 586.37 796.03 529.07 725.33 529.07 L 640.99 529.07 C 624.16 529.07 610.12 516.65 605.37 500.50" fill="url(#master_svg4_26_633)" fill-opacity="0.8" fill-rule="evenodd" filter="url(#master_svg3_37_0459)" group-id="2" node-id="88" stroke="none" target-height="443.7334" target-width="682.66675" target-x="170.6665" target-y="341.33325"></path><path d="M 560.56 446.07 C 573.26 464.27 582.74 484.02 589.00 505.31 C 592.41 516.91 598.67 526.48 607.79 534.00 C 617.59 542.09 628.66 546.13 640.99 546.13 L 725.33 546.13 C 740.39 546.13 754.78 549.04 768.51 554.84 C 781.78 560.46 793.53 568.38 803.77 578.62 C 814.02 588.87 821.94 600.62 827.56 613.89 C 833.36 627.62 836.27 642.01 836.27 657.07 C 836.27 672.12 833.36 686.51 827.56 700.24 C 821.94 713.51 814.02 725.27 803.77 735.51 C 793.53 745.75 781.78 753.68 768.51 759.29 C 754.78 765.10 740.39 768.00 725.33 768.00 L 392.53 768.00 C 364.75 768.00 338.18 762.64 312.82 751.91 C 288.32 741.55 266.62 726.92 247.72 708.02 C 228.82 689.11 214.18 667.41 203.82 642.91 C 193.10 617.56 187.73 590.99 187.73 563.20 C 187.73 535.41 193.10 508.84 203.82 483.49 C 214.18 458.99 228.82 437.29 247.72 418.38 C 266.62 399.48 288.32 384.85 312.82 374.49 C 338.18 363.76 364.75 358.40 392.53 358.40 C 415.16 358.40 437.12 362.02 458.41 369.25 C 479.10 376.28 498.20 386.39 515.72 399.58 C 533.14 412.71 548.09 428.21 560.56 446.07 Z M 392.53 341.33 C 492.01 341.33 577.98 407.26 605.37 500.50 C 610.12 516.65 624.16 529.07 640.99 529.07 L 725.33 529.07 C 796.03 529.07 853.33 586.37 853.33 657.07 C 853.33 727.76 796.03 785.07 725.33 785.07 L 392.53 785.07 C 270.00 785.07 170.67 685.73 170.67 563.20 C 170.67 440.67 270.00 341.33 392.53 341.33 Z" fill="url(#master_svg5_27_0550)" fill-rule="evenodd" filter="url(#master_svg3_37_0459)" group-id="2" node-id="90" stroke="none" target-height="443.7334" target-width="682.66675" target-x="170.6665" target-y="341.33325"></path></g></svg>