<?xml version="1.0" encoding="UTF-8"?>
<svg xmlns="http://www.w3.org/2000/svg" viewBox="0 0 200 200">
  <defs>
    <linearGradient id="gradTop1" x1="0%" y1="0%" x2="100%" y2="100%">
      <stop offset="0%" stop-color="#00d4ff" />
      <stop offset="100%" stop-color="#0099ff" />
    </linearGradient>
    <linearGradient id="gradTop2" x1="0%" y1="0%" x2="100%" y2="100%">
      <stop offset="0%" stop-color="#00b4ff" />
      <stop offset="100%" stop-color="#0077ff" />
    </linearGradient>
    <linearGradient id="gradTop3" x1="0%" y1="0%" x2="100%" y2="100%">
      <stop offset="0%" stop-color="#0094ff" />
      <stop offset="100%" stop-color="#0055ff" />
    </linearGradient>
    <linearGradient id="gradLeft1" x1="0%" y1="0%" x2="100%" y2="100%">
      <stop offset="0%" stop-color="#0066ff" />
      <stop offset="100%" stop-color="#0033cc" />
    </linearGradient>
    <linearGradient id="gradLeft2" x1="0%" y1="0%" x2="100%" y2="100%">
      <stop offset="0%" stop-color="#0055ff" />
      <stop offset="100%" stop-color="#0022aa" />
    </linearGradient>
    <linearGradient id="gradLeft3" x1="0%" y1="0%" x2="100%" y2="100%">
      <stop offset="0%" stop-color="#0044ff" />
      <stop offset="100%" stop-color="#001188" />
    </linearGradient>
    <linearGradient id="gradRight1" x1="0%" y1="0%" x2="100%" y2="100%">
      <stop offset="0%" stop-color="#0088ff" />
      <stop offset="100%" stop-color="#0044dd" />
    </linearGradient>
    <linearGradient id="gradRight2" x1="0%" y1="0%" x2="100%" y2="100%">
      <stop offset="0%" stop-color="#0077ff" />
      <stop offset="100%" stop-color="#0033bb" />
    </linearGradient>
    <linearGradient id="gradRight3" x1="0%" y1="0%" x2="100%" y2="100%">
      <stop offset="0%" stop-color="#0066ff" />
      <stop offset="100%" stop-color="#002299" />
    </linearGradient>
    <linearGradient id="gradGlow" x1="0%" y1="0%" x2="100%" y2="100%">
      <stop offset="0%" stop-color="#00ffff" />
      <stop offset="100%" stop-color="#0088ff" />
    </linearGradient>
    <filter id="glow" x="-50%" y="-50%" width="200%" height="200%">
      <feGaussianBlur stdDeviation="3" result="coloredBlur" />
      <feMerge>
        <feMergeNode in="coloredBlur" />
        <feMergeNode in="SourceGraphic" />
      </feMerge>
    </filter>
    <filter id="shadow" x="-20%" y="-20%" width="140%" height="140%">
      <feDropShadow dx="0" dy="4" stdDeviation="6" flood-opacity="0.4" />
    </filter>
    <filter id="innerGlow" x="-50%" y="-50%" width="200%" height="200%">
      <feGaussianBlur stdDeviation="1.5" result="coloredBlur" />
      <feMerge>
        <feMergeNode in="coloredBlur" />
        <feMergeNode in="SourceGraphic" />
      </feMerge>
    </filter>
  </defs>
  
  <g filter="url(#shadow)">
    <g filter="url(#glow)">
      <polygon points="100,20 160,55 160,125 100,160 40,125 40,55" fill="none" stroke="url(#gradGlow)" stroke-width="2" opacity="0.3" />
      
      <g transform="translate(0, 5)">
        <polygon points="100,25 155,57 155,122 100,154 45,122 45,57" fill="url(#gradTop1)" opacity="0.9" />
        <polygon points="100,25 155,57 155,122 100,154 45,122 45,57" fill="none" stroke="rgba(255,255,255,0.4)" stroke-width="1.5" />
        
        <polygon points="100,40 142,64 142,115 100,139 58,115 58,64" fill="url(#gradTop2)" opacity="0.85" />
        <polygon points="100,40 142,64 142,115 100,139 58,115 58,64" fill="none" stroke="rgba(255,255,255,0.3)" stroke-width="1" />
        
        <polygon points="100,55 129,72 129,108 100,125 71,108 71,72" fill="url(#gradTop3)" opacity="0.8" />
        <polygon points="100,55 129,72 129,108 100,125 71,108 71,72" fill="none" stroke="rgba(255,255,255,0.25)" stroke-width="0.8" />
        
        <polygon points="100,70 116,79 116,101 100,110 84,101 84,79" fill="url(#gradGlow)" opacity="0.9" filter="url(#innerGlow)" />
        
        <g opacity="0.4">
          <line x1="100" y1="25" x2="100" y2="154" stroke="rgba(255,255,255,0.3)" stroke-width="0.5" />
          <line x1="45" y1="57" x2="155" y2="122" stroke="rgba(255,255,255,0.3)" stroke-width="0.5" />
          <line x1="45" y1="122" x2="155" y2="57" stroke="rgba(255,255,255,0.3)" stroke-width="0.5" />
        </g>
      </g>
      
      <g transform="translate(0, 5)">
        <polygon points="45,122 100,154 100,185 45,153" fill="url(#gradLeft1)" opacity="0.85" />
        <polygon points="45,122 100,154 100,185 45,153" fill="none" stroke="rgba(255,255,255,0.3)" stroke-width="1" />
        
        <polygon points="58,115 100,139 100,162 58,138" fill="url(#gradLeft2)" opacity="0.8" />
        <polygon points="58,115 100,139 100,162 58,138" fill="none" stroke="rgba(255,255,255,0.25)" stroke-width="0.8" />
        
        <polygon points="71,108 100,125 100,140 71,123" fill="url(#gradLeft3)" opacity="0.75" />
        <polygon points="71,108 100,125 100,140 71,123" fill="none" stroke="rgba(255,255,255,0.2)" stroke-width="0.5" />
      </g>
      
      <g transform="translate(0, 5)">
        <polygon points="100,154 155,122 155,153 100,185" fill="url(#gradRight1)" opacity="0.85" />
        <polygon points="100,154 155,122 155,153 100,185" fill="none" stroke="rgba(255,255,255,0.3)" stroke-width="1" />
        
        <polygon points="100,139 142,115 142,138 100,162" fill="url(#gradRight2)" opacity="0.8" />
        <polygon points="100,139 142,115 142,138 100,162" fill="none" stroke="rgba(255,255,255,0.25)" stroke-width="0.8" />
        
        <polygon points="100,125 129,108 129,123 100,140" fill="url(#gradRight3)" opacity="0.75" />
        <polygon points="100,125 129,108 129,123 100,140" fill="none" stroke="rgba(255,255,255,0.2)" stroke-width="0.5" />
      </g>
      
      <g opacity="0.5">
        <circle cx="100" cy="70" r="2" fill="#ffffff" />
        <circle cx="100" cy="40" r="1.5" fill="#ffffff" />
        <circle cx="100" cy="55" r="1.2" fill="#ffffff" />
      </g>
      
      <g opacity="0.3">
        <circle cx="45" cy="122" r="1.5" fill="#ffffff" />
        <circle cx="58" cy="115" r="1.2" fill="#ffffff" />
        <circle cx="71" cy="108" r="1" fill="#ffffff" />
      </g>
      
      <g opacity="0.3">
        <circle cx="155" cy="122" r="1.5" fill="#ffffff" />
        <circle cx="142" cy="115" r="1.2" fill="#ffffff" />
        <circle cx="129" cy="108" r="1" fill="#ffffff" />
      </g>
      
      <g opacity="0.25">
        <circle cx="100" cy="154" r="1.5" fill="#ffffff" />
        <circle cx="100" cy="139" r="1.2" fill="#ffffff" />
        <circle cx="100" cy="125" r="1" fill="#ffffff" />
      </g>
      
      <g opacity="0.15">
        <circle cx="100" cy="185" r="1.5" fill="#ffffff" />
        <circle cx="45" cy="153" r="1.2" fill="#ffffff" />
        <circle cx="155" cy="153" r="1.2" fill="#ffffff" />
      </g>
    </g>
    
    <g opacity="0.2">
      <circle cx="100" cy="70" r="45" fill="none" stroke="url(#gradGlow)" stroke-width="1" />
      <circle cx="100" cy="70" r="60" fill="none" stroke="url(#gradGlow)" stroke-width="0.5" />
    </g>
    
    <g opacity="0.15">
      <path d="M40,57 L100,25 L160,57" stroke="#ffffff" stroke-width="0.5" fill="none" />
      <path d="M45,122 L100,154 L155,122" stroke="#ffffff" stroke-width="0.5" fill="none" />
      <path d="M40,57 L45,122 L45,153" stroke="#ffffff" stroke-width="0.5" fill="none" />
      <path d="M160,57 L155,122 L155,153" stroke="#ffffff" stroke-width="0.5" fill="none" />
    </g>
  </g>
</svg>
